<?xml version="1.0" encoding="UTF-8"?>
<svg version="1.1" xmlns="http://www.w3.org/2000/svg" width="1200" height="1372">
<path d="M0 0 C393.36 0 786.72 0 1192 0 C1192 553.6545 1192 553.6545 1188.25 583.3125 C1188.16763092 583.97569244 1188.08526184 584.63888489 1188.00039673 585.32217407 C1179.44829916 653.67793255 1158.86345718 719.48915576 1128 781 C1127.44135254 782.11455566 1126.88270508 783.22911133 1126.30712891 784.37744141 C1107.10117743 822.47911607 1083.31649263 858.22721532 1056 891 C1055.51934082 891.57975586 1055.03868164 892.15951172 1054.54345703 892.75683594 C1048.41788295 900.13628142 1042.08135249 907.27741412 1035.5534668 914.30297852 C1034.37484102 915.5905202 1033.20931939 916.89007254 1032.05004883 918.19506836 C1026.67156634 924.24608554 1021.09837599 930.05767416 1015.36108398 935.76928711 C1013.93160283 937.19337492 1012.50759489 938.62278044 1011.08398438 940.05273438 C1005.88342761 945.24605307 1000.58346246 950.22347526 995 955 C993.39231627 956.45445517 991.78760285 957.91220895 990.1875 959.375 C984.93824117 964.10571502 979.50441004 968.57083694 974 973 C972.87864698 973.91374442 971.75756489 974.82782139 970.63671875 975.7421875 C954.11813191 989.15973071 936.87286883 1001.4541933 919 1013 C918.17338867 1013.53447754 917.34677734 1014.06895508 916.49511719 1014.61962891 C882.29187466 1036.58619182 845.93109101 1054.48145921 808 1069 C807.04123962 1069.36738281 807.04123962 1069.36738281 806.06311035 1069.7421875 C745.51930779 1092.85210104 679.25493821 1106.97574116 614.328125 1107.203125 C612.96507232 1107.21014928 611.60201995 1107.21723608 610.2389679 1107.22438049 C605.90930705 1107.24376683 601.57969987 1107.2488146 597.25 1107.25 C596.51175365 1107.25044186 595.77350731 1107.25088371 595.01288986 1107.25133896 C572.53380458 1107.25839271 550.32536942 1106.87987713 528 1104 C526.58180171 1103.82587663 525.1635041 1103.65256063 523.74511719 1103.47998047 C442.92711518 1093.54096227 364.23960669 1067.3685324 258 1003 C257.2560498 1002.49017578 256.51209961 1001.98035156 255.74560547 1001.45507812 C240.88602861 991.25010862 226.63004446 980.27472403 212.9609375 968.5234375 C210.07681124 966.06546182 207.14244304 963.68455016 204.1875 961.3125 C200.25882578 958.11831705 196.62910728 954.78945732 193.14453125 951.1171875 C191.32054577 949.31645866 189.46191765 947.66766849 187.515625 946.00390625 C182.28474986 941.46109749 177.41325001 936.56324723 172.52709961 931.6574707 C170.94040054 930.06541034 169.34842258 928.4787701 167.75585938 926.89257812 C162.29296277 921.4332503 157.01082071 915.88106185 152 910 C150.54554483 908.39231627 149.08779105 906.78760285 147.625 905.1875 C142.89423907 899.93819023 138.43002948 894.50376055 134 889 C133.07461592 887.86686303 132.14881607 886.73406551 131.22265625 885.6015625 C123.41918353 876.01206541 116.12375968 866.1024602 109 856 C108.52175781 855.32324219 108.04351562 854.64648438 107.55078125 853.94921875 C95.76964109 837.2180197 84.97705445 819.86286244 75 802 C74.43410156 800.98856934 73.86820312 799.97713867 73.28515625 798.93505859 C36.23230771 732.28973345 13.21067269 658.77612334 3.75 583.1875 C3.59861572 581.98714111 3.44723145 580.78678223 3.29125977 579.55004883 C-19.13889641 387.670143 0 193.18646476 0 0 Z " fill="#D72134" transform="translate(4,259)"/>
<path d="M0 0 C59.96109565 -0.06021772 59.96109565 -0.06021772 78.74501038 -0.07695007 C79.74057785 -0.07783807 79.74057785 -0.07783807 80.75625781 -0.07874402 C103.10564586 -0.0986248 125.45503483 -0.11437452 147.8044281 -0.12702942 C148.53401103 -0.12744359 149.26359396 -0.12785776 150.01528546 -0.12828448 C165.87239609 -0.13726392 181.729507 -0.14557437 197.58661834 -0.15319599 C205.3633283 -0.15693789 213.14003819 -0.16082756 220.91674805 -0.16479492 C221.69061002 -0.1651872 222.46447199 -0.16557948 223.26178433 -0.16598364 C248.3293876 -0.17875985 273.39697055 -0.20128793 298.46456151 -0.22889166 C324.23214341 -0.25721457 349.99971405 -0.27566216 375.76731125 -0.28174497 C379.40966747 -0.28260939 383.05202364 -0.2835863 386.69437981 -0.28463173 C387.41122356 -0.284834 388.12806732 -0.28503627 388.86663361 -0.28524467 C400.38989904 -0.28878508 411.91312963 -0.30268647 423.43638087 -0.3204961 C435.03079725 -0.33819339 446.62517069 -0.34465278 458.21960098 -0.34050413 C464.49780039 -0.33858383 470.77589781 -0.34151522 477.05407906 -0.35761642 C482.80788287 -0.37226471 488.56151654 -0.37292034 494.31532835 -0.36269668 C496.39095505 -0.36143395 498.46659257 -0.36519747 500.54219813 -0.37464955 C528.82007032 -0.49587974 553.35646733 6.78417406 574 27 C586.46211045 40.11693399 593.33908205 56.50593652 597 74 C597.27972656 72.86304687 597.55945313 71.72609375 597.84765625 70.5546875 C604.14096461 45.92287156 617.41536232 25.19329922 639.59765625 11.93359375 C653.67134599 3.93534298 668.71285043 -0.17564647 684.91989803 -0.12304783 C686.23881463 -0.1247786 686.23881463 -0.1247786 687.58437601 -0.12654433 C690.53331546 -0.12919306 693.48220042 -0.12470317 696.43113708 -0.12025452 C698.56557559 -0.12069057 700.70001404 -0.12156612 702.83445221 -0.12284368 C708.70185567 -0.12508185 714.56924091 -0.12107659 720.43664205 -0.11606562 C726.76309482 -0.11175161 733.08954654 -0.11320822 739.41600037 -0.1139679 C750.37773859 -0.11449253 761.33947 -0.11138696 772.30120659 -0.10573006 C783.79749009 -0.09981251 795.29377122 -0.095964 806.79005623 -0.09487724 C807.50492999 -0.0948085 808.21980375 -0.09473976 808.95634035 -0.09466894 C812.58684082 -0.09433061 816.21734128 -0.09402922 819.84784175 -0.09374207 C845.56091629 -0.0916418 871.27398774 -0.08490485 896.98706055 -0.07543945 C921.96655257 -0.06625472 946.94604374 -0.05917125 971.92553711 -0.05493164 C973.08055536 -0.05473435 973.08055536 -0.05473435 974.25890731 -0.05453308 C981.99170433 -0.05321455 989.72450135 -0.05193874 997.45729838 -0.05069422 C1013.20981863 -0.04815802 1028.96233883 -0.04533677 1044.71485901 -0.04234314 C1045.43913026 -0.04220585 1046.16340152 -0.04206856 1046.90962039 -0.04192711 C1069.10880959 -0.03770412 1091.30799827 -0.03227295 1113.50718689 -0.02565002 C1115.37272349 -0.02509419 1115.37272349 -0.02509419 1117.2759477 -0.02452713 C1142.18396535 -0.01703258 1167.09198262 -0.0083644 1192 0 C1192 56.43 1192 112.86 1192 171 C798.64 171 405.28 171 0 171 C0 114.57 0 58.14 0 0 Z " fill="#D72134" transform="translate(4,5)"/>
<path d="M0 0 C-0.73935791 0.40726318 -1.47871582 0.81452637 -2.24047852 1.23413086 C-19.55430356 10.72898875 -19.55430356 10.72898875 -36.57861328 20.72753906 C-41.6432261 23.81233569 -46.78249364 26.75664094 -51.9375 29.6875 C-59.65428063 34.07584639 -67.33795039 38.51677454 -75 43 C-83.32863681 47.87184339 -91.68499365 52.69047169 -100.07080078 57.46313477 C-106.69950687 61.2417843 -113.29083553 65.08185568 -119.875 68.9375 C-128.81698355 74.17246497 -137.81200024 79.3042777 -146.84277344 84.38427734 C-153.16130806 87.94430659 -159.43005551 91.57788687 -165.66992188 95.27368164 C-171.06347347 98.46316221 -176.4933275 101.58530261 -181.9375 104.6875 C-194.31962954 111.74329001 -206.66104327 118.86904449 -219 126 C-219.86367188 126.49886719 -220.72734375 126.99773437 -221.6171875 127.51171875 C-230.02289473 132.36744283 -238.41740839 137.24169023 -246.79858398 142.13964844 C-247.81380127 142.73293945 -248.82901855 143.32623047 -249.875 143.9375 C-251.39105835 144.82356934 -251.39105835 144.82356934 -252.93774414 145.72753906 C-259.62353127 149.62932055 -266.33462276 153.48384725 -273.0625 157.3125 C-275.59722985 158.76024073 -278.13094019 160.20972898 -280.66357422 161.66113281 C-282.16948343 162.52408016 -283.6762554 163.38552454 -285.18408203 164.24511719 C-311.79740559 179.47604971 -327.66960947 199.85617045 -342.37304688 226.12011719 C-345.19333197 231.11232652 -348.10015809 236.05372549 -351 241 C-355.37459204 248.47694473 -359.71445222 255.97166382 -364 263.5 C-368.20255842 270.88240121 -372.4589679 278.23118506 -376.75 285.5625 C-381.88863307 294.34385295 -386.96313551 303.16005454 -392 312 C-397.60609285 321.83896928 -403.27193537 331.64089631 -408.9921875 341.4140625 C-413.19725381 348.6049179 -417.34091394 355.82883663 -421.46191406 363.06811523 C-425.84950388 370.76382 -430.31640524 378.41210765 -434.7890625 386.05859375 C-438.5633838 392.51817006 -442.29885118 398.99824926 -446 405.5 C-450.86699204 414.04976943 -455.81267752 422.55156683 -460.78027344 431.04321289 C-465.14090632 438.50558394 -469.43998484 446.00125251 -473.71582031 453.51245117 C-478.39653469 461.72274152 -483.18319539 469.86897806 -488 478 C-490.36340769 475.81819475 -491.92246638 473.65056303 -493.49609375 470.8515625 C-493.9657959 470.02229248 -494.43549805 469.19302246 -494.91943359 468.33862305 C-495.42039551 467.44312744 -495.92135742 466.54763184 -496.4375 465.625 C-497.52204906 463.70698242 -498.60668687 461.78901501 -499.69140625 459.87109375 C-500.24328613 458.89124512 -500.79516602 457.91139648 -501.36376953 456.90185547 C-503.8523313 452.48839006 -506.3618003 448.08697062 -508.875 443.6875 C-509.35686768 442.84348633 -509.83873535 441.99947266 -510.33520508 441.12988281 C-514.39839119 434.0254534 -518.50445224 426.94629247 -522.625 419.875 C-523.53161377 418.31785278 -523.53161377 418.31785278 -524.45654297 416.72924805 C-525.02002441 415.76414307 -525.58350586 414.79903809 -526.1640625 413.8046875 C-526.66373535 412.94858887 -527.1634082 412.09249023 -527.67822266 411.21044922 C-528.73531047 409.44264851 -529.85745844 407.71381234 -531 406 C-530.67647202 401.83867047 -528.96334938 398.8011985 -526.89453125 395.23046875 C-526.24798584 394.10688965 -525.60144043 392.98331055 -524.93530273 391.82568359 C-524.22786671 390.61285954 -523.52026149 389.40013416 -522.8125 388.1875 C-522.08283592 386.92562747 -521.35375823 385.66341571 -520.62524414 384.40087891 C-518.4261745 380.59512132 -516.21389905 376.79714354 -514 373 C-513.37770508 371.93056152 -512.75541016 370.86112305 -512.11425781 369.75927734 C-509.2460548 364.83089416 -506.37127323 359.90640724 -503.4921875 354.984375 C-497.91570844 345.44177067 -492.40788509 335.85942207 -486.89111328 326.28222656 C-483.76319852 320.85340058 -480.63141552 315.42680719 -477.5 310 C-476.24998121 307.83334417 -474.99998122 305.6666775 -473.75 303.5 C-466.25 290.5 -458.75 277.5 -451.25 264.5 C-450.63092773 263.42693604 -450.01185547 262.35387207 -449.37402344 261.24829102 C-448.12729744 259.08731012 -446.88055273 256.92634002 -445.63378906 254.76538086 C-442.45854117 249.26181149 -439.28364505 243.75803968 -436.109375 238.25390625 C-435.46887207 237.14345947 -434.82836914 236.0330127 -434.16845703 234.88891602 C-432.90348573 232.69558005 -431.63883004 230.50206204 -430.37451172 228.30834961 C-427.47670716 223.28248188 -424.57247843 218.26065599 -421.6484375 213.25 C-421.13506836 212.36884521 -420.62169922 211.48769043 -420.09277344 210.57983398 C-419.14267732 208.95035277 -418.19034777 207.32217088 -417.23535156 205.69555664 C-416.81995117 204.98262451 -416.40455078 204.26969238 -415.9765625 203.53515625 C-415.61643066 202.920354 -415.25629883 202.30555176 -414.88525391 201.67211914 C-413.85311545 199.83335569 -413.85311545 199.83335569 -413 197 C-413.88333008 197.41660889 -414.76666016 197.83321777 -415.67675781 198.26245117 C-431.87450599 205.90032516 -448.07834229 213.52297588 -464.33203125 221.04125977 C-470.90630323 224.08638933 -477.46646742 227.15910754 -484.015625 230.2578125 C-484.7835437 230.6207843 -485.5514624 230.9837561 -486.34265137 231.35772705 C-490.10790073 233.13759292 -493.87164091 234.92051757 -497.6328125 236.70898438 C-499.01035157 237.36081467 -500.38795279 238.01251364 -501.765625 238.6640625 C-502.37907776 238.95725372 -502.99253052 239.25044495 -503.62457275 239.55252075 C-508.00848511 241.6201403 -512.44965718 243.34356499 -517 245 C-522.40257752 236.43532564 -527.4917341 227.71782262 -532.47631836 218.90405273 C-534.85829509 214.70322243 -537.26296458 210.52843089 -539.8046875 206.421875 C-540.23015869 205.73270996 -540.65562988 205.04354492 -541.09399414 204.33349609 C-541.88632532 203.05998763 -542.68717506 201.79172624 -543.49780273 200.52978516 C-544.40850634 199.06480449 -545.21505523 197.53603747 -546 196 C-545 193 -545 193 -543.31689453 192.08032227 C-542.59614746 191.82822998 -541.87540039 191.5761377 -541.1328125 191.31640625 C-540.33423828 191.03031494 -539.53566406 190.74422363 -538.71289062 190.44946289 C-537.85888672 190.15676514 -537.00488281 189.86406738 -536.125 189.5625 C-535.26326172 189.25755615 -534.40152344 188.9526123 -533.51367188 188.63842773 C-531.79607915 188.03078576 -530.07702 187.42727128 -528.35644531 186.828125 C-524.5573798 185.49302034 -520.79756923 184.05319469 -517.03125 182.62890625 C-515 182 -515 182 -512 182 C-512.35827881 181.34926514 -512.71655762 180.69853027 -513.08569336 180.02807617 C-514.70552443 177.08261806 -516.32155274 174.13509051 -517.9375 171.1875 C-518.50146484 170.16333984 -519.06542969 169.13917969 -519.64648438 168.08398438 C-520.18466797 167.10107422 -520.72285156 166.11816406 -521.27734375 165.10546875 C-521.77484131 164.19949951 -522.27233887 163.29353027 -522.78491211 162.36010742 C-524 160 -524 160 -525 157 C-495.6 147 -495.6 147 -490 147 C-490.54527344 146.01773438 -490.54527344 146.01773438 -491.1015625 145.015625 C-491.60429688 144.10296875 -492.10703125 143.1903125 -492.625 142.25 C-493.35589844 140.92742187 -493.35589844 140.92742187 -494.1015625 139.578125 C-496.86855345 134.45549599 -499.41185234 129.21440302 -502 124 C-501.40103912 123.84823807 -500.80207825 123.69647614 -500.18496704 123.54011536 C-493.85575974 121.93601719 -487.52729358 120.32901871 -481.19921875 118.72045898 C-478.84881533 118.12338587 -476.49823427 117.52701155 -474.14746094 116.93139648 C-458.12376385 112.88491869 -458.12376385 112.88491869 -442.1796875 108.5390625 C-430.66598721 105.28231907 -419.04499512 102.43588561 -407.43554688 99.54370117 C-404.82563392 98.89348736 -402.21626191 98.24117529 -399.60742188 97.58666992 C-395.7493382 96.61898744 -391.89042506 95.65472584 -388.03125 94.69140625 C-386.90948364 94.40995255 -385.78771729 94.12849884 -384.63195801 93.83851624 C-377.99131132 92.18752592 -371.337978 90.61476507 -364.66582471 89.09691572 C-348.81346904 85.48182343 -333.03648482 81.579986 -317.26569521 77.62812138 C-313.40448518 76.66114152 -309.54258054 75.6969426 -305.68077087 74.73236084 C-298.15495847 72.85215488 -290.62976668 70.96947697 -283.10479621 69.0859046 C-274.30909836 66.88435695 -265.51277311 64.68532108 -256.71642932 62.48635602 C-241.00488577 58.55859472 -225.29390784 54.62857579 -209.58325195 50.69726562 C-194.39780603 46.89738176 -179.21194882 43.09914728 -164.02563477 39.30273438 C-163.08963126 39.06874349 -162.15362776 38.8347526 -161.18926052 38.59367108 C-159.78748944 38.24324345 -159.78748944 38.24324345 -158.35739976 37.88573647 C-140.97818689 33.54110645 -123.59936277 29.1949232 -106.22071651 24.84802735 C-100.11382822 23.32055661 -94.00682751 21.79353586 -87.89978981 20.2666626 C-80.44257074 18.40218591 -72.98557903 16.53680278 -65.52885536 14.67034578 C-61.73669389 13.7211646 -57.94444846 12.77232302 -54.15194321 11.8245163 C-50.67532736 10.95564165 -47.19899859 10.0856272 -43.72286515 9.21482468 C-41.77522617 8.72724704 -39.82728664 8.24087051 -37.87934172 7.7545166 C-31.9320975 6.26391511 -25.9967105 4.74220925 -20.07816124 3.14117432 C-19.00836137 2.85351259 -17.93856151 2.56585087 -16.83634347 2.26947212 C-14.86183395 1.7354109 -12.8894861 1.19326105 -10.91991121 0.64127922 C-10.05925748 0.40855875 -9.19860376 0.17583828 -8.31186962 -0.06393433 C-7.57019989 -0.27006788 -6.82853016 -0.47620144 -6.06438559 -0.68858147 C-3.75310115 -1.0372454 -2.20782024 -0.71255178 0 0 Z " fill="#FEFEFE" transform="translate(1110,432)"/>
<path d="M0 0 C0.80179687 0.46148438 1.60359375 0.92296875 2.4296875 1.3984375 C9.19446412 5.27936377 15.98457725 9.10626455 22.8125 12.875 C29.28846522 16.45676673 35.69498758 20.13741983 42.06201172 23.90893555 C48.49384559 27.71498232 54.96242632 31.4555657 61.4375 35.1875 C62.53545898 35.82155762 63.63341797 36.45561523 64.76464844 37.10888672 C70.48364687 40.40894591 76.21182535 43.6911762 81.95703125 46.9453125 C111.01737537 63.44943381 132.0938175 80.89876114 149 110 C149.84522217 111.45164551 149.84522217 111.45164551 150.70751953 112.93261719 C154.51436017 119.48257676 158.29171115 126.04921003 162.06054688 132.62109375 C165.1974788 138.08624202 168.34931649 143.54277215 171.5 149 C172.75007519 151.16662329 174.00007511 153.33329001 175.25 155.5 C175.86875 156.5725 176.4875 157.645 177.125 158.75 C202.4375 202.625 202.4375 202.625 227.75 246.5 C228.36866943 247.57233887 228.98733887 248.64467773 229.62475586 249.74951172 C230.8756448 251.91776264 232.12645852 254.08605697 233.37719727 256.25439453 C236.48798335 261.64717915 239.60004238 267.03922093 242.71484375 272.4296875 C249.53502637 284.23629484 256.3232326 296.06027 263.07736206 307.90472412 C268.22912335 316.93587706 273.44507122 325.92774208 278.69799805 334.90039062 C285.23789231 346.08771295 291.65040244 357.34721108 298.06542969 368.60644531 C301.37217737 374.40702492 304.68626056 380.20341263 308 386 C313.35306819 377.41205371 318.50702941 368.74101237 323.5 359.9375 C324.19173167 358.72202894 324.88371375 357.50670035 325.57592773 356.29150391 C327.00718036 353.77839684 328.43738122 351.26469614 329.86669922 348.75048828 C333.25740334 342.78748596 336.65967418 336.83109057 340.0625 330.875 C340.55882935 330.00595535 340.55882935 330.00595535 341.06518555 329.11935425 C346.46817698 319.66001012 351.90538127 310.22070974 357.35571289 300.78857422 C361.92726918 292.87237125 366.46955939 284.93976686 371 277 C376.75584544 266.91266526 382.54464237 256.84485047 388.35546875 246.7890625 C392.92704623 238.87266209 397.46946933 230.9399247 402 223 C407.14318934 213.98636803 412.30775492 204.98550083 417.5 196 C422.66831052 187.05445532 427.81416326 178.09636584 432.9375 169.125 C433.43416168 168.25542664 433.43416168 168.25542664 433.94085693 167.36828613 C437.31517904 161.45988894 440.68683438 155.54997576 444.05574036 149.63848877 C451.39550834 136.76082313 458.76330132 123.90119149 466.26513672 111.11694336 C468.64933611 107.05097647 471.02752153 102.98688214 473.296875 98.85546875 C477.83526807 90.59753303 482.99321917 83.23364842 489 76 C489.78117187 75.05253906 490.56234375 74.10507812 491.3671875 73.12890625 C495.79959634 68.00620423 500.52314223 63.51960994 505.8125 59.3125 C506.33231445 58.89726074 506.85212891 58.48202148 507.38769531 58.05419922 C516.96424837 50.69842074 527.73944214 44.91257051 538.29663086 39.09765625 C540.09467407 38.10727824 541.89028193 37.11259152 543.68554688 36.1171875 C553.11450857 30.90184275 553.11450857 30.90184275 557 29 C555.575794 32.80962064 553.82091117 36.24403968 551.796875 39.76953125 C551.15339111 40.89335205 550.50990723 42.01717285 549.84692383 43.17504883 C549.14805502 44.38759354 548.4490777 45.60007571 547.75 46.8125 C547.02673826 48.07239578 546.30367776 49.33240711 545.58081055 50.5925293 C540.45901623 59.51080016 535.27857363 68.39446763 530.08105469 77.26879883 C526.15851517 83.97825919 522.30981347 90.72597283 518.5 97.5 C513.5386248 106.32022258 508.48058852 115.0791227 503.36889648 123.81298828 C497.16603856 134.41299277 491.0343641 145.05358655 484.90429688 155.69580078 C482.98493338 159.02614252 481.06317647 162.35509148 479.140625 165.68359375 C472.89483505 176.49819573 466.66800159 187.32276293 460.48535156 198.17358398 C456.72152288 204.7665698 452.89811199 211.32357055 449.0625 217.875 C444.47442411 225.71314636 439.95185663 233.58370569 435.5 241.5 C430.54075384 250.3165212 425.48467015 259.07161791 420.37548828 267.80200195 C410.97575434 283.86626939 401.69994494 300.00188956 392.4855957 316.1730957 C388.72174404 322.76627783 384.89820373 329.32341386 381.0625 335.875 C376.47442411 343.71314636 371.95185663 351.58370569 367.5 359.5 C362.54075384 368.3165212 357.48467015 377.07161791 352.37548828 385.80200195 C342.97575434 401.86626939 333.69994494 418.00188956 324.4855957 434.1730957 C320.14562939 441.77546447 315.72446846 449.329438 311.30078125 456.88330078 C306.56536641 464.98784253 301.93088391 473.14661619 297.34985352 481.33935547 C294.36829731 486.65457595 291.27326249 491.8588758 288 497 C284.06668663 495.68889554 283.75802174 494.26685914 281.8125 490.6640625 C281.20204834 489.54684814 280.59159668 488.42963379 279.96264648 487.27856445 C279.48273758 486.38507797 279.48273758 486.38507797 278.99313354 485.47354126 C277.65379963 482.98060965 276.29391858 480.49911177 274.93492126 478.01686096 C274.25100458 476.76728909 273.56811449 475.5171548 272.88624573 474.26646423 C270.14286052 469.23826725 267.32228009 464.26064237 264.4375 459.3125 C264.00687256 458.57257813 263.57624512 457.83265625 263.13256836 457.0703125 C261.75752492 454.71208392 260.37903772 452.35589486 259 450 C256.68652699 446.04223469 254.37426284 442.08376445 252.0625 438.125 C251.46816162 437.10768799 250.87382324 436.09037598 250.26147461 435.04223633 C245.97608047 427.69793523 241.74596639 420.32368491 237.53930664 412.93408203 C233.73638012 406.26371497 229.87673871 399.62769959 226 393 C221.12828732 384.67128596 216.30952917 376.31500786 211.53686523 367.92919922 C207.7582157 361.30049313 203.91814432 354.70916447 200.0625 348.125 C194.82753503 339.18301645 189.6957223 330.18799976 184.61572266 321.15722656 C181.05569341 314.83869194 177.42211313 308.56994449 173.72631836 302.33007812 C170.53683779 296.93652653 167.41469739 291.5066725 164.3125 286.0625 C157.25670999 273.68037046 150.13095551 261.33895673 143 249 C142.25169922 247.70449219 142.25169922 247.70449219 141.48828125 246.3828125 C136.63297631 237.97783083 131.75923847 229.58398933 126.86157227 221.20361328 C121.37106422 211.80813134 115.92293457 202.39119879 110.53930664 192.93408203 C106.73638012 186.26371497 102.87673871 179.62769959 99 173 C94.12828732 164.67128596 89.30952917 156.31500786 84.53686523 147.92919922 C80.7582157 141.30049313 76.91814432 134.70916447 73.0625 128.125 C67.82753503 119.18301645 62.6957223 110.18799976 57.61572266 101.15722656 C54.05859694 94.84384528 50.42862196 88.57981154 46.73510742 82.34545898 C43.45666094 76.80255258 40.25102604 71.22005678 37.0625 65.625 C29.01966962 51.51456941 20.8639943 37.47083162 12.6875 23.4375 C12.11273926 22.45031982 11.53797852 21.46313965 10.94580078 20.44604492 C10.39005371 19.49318604 9.83430664 18.54032715 9.26171875 17.55859375 C8.45420166 16.17389893 8.45420166 16.17389893 7.63037109 14.76123047 C5.49192145 11.13950758 3.29191782 7.55636447 1.07739258 3.98071289 C0 2 0 2 0 0 Z " fill="#FEFDFD" transform="translate(313,560)"/>
<path d="M0 0 C3.52250813 1.32574682 6.69302029 2.88376506 9.9296875 4.80078125 C11.35269165 5.63851074 11.35269165 5.63851074 12.80444336 6.49316406 C13.81772705 7.09354492 14.83101074 7.69392578 15.875 8.3125 C24.18699495 13.20257914 32.52987129 18.02619917 40.9375 22.75 C48.22614793 26.84940447 55.47119392 31.00894081 62.66552734 35.27148438 C68.10023785 38.48612918 73.5749649 41.62650665 79.0625 44.75 C86.63063094 49.05956258 94.16916188 53.41665282 101.6875 57.8125 C117.94872786 67.31821209 134.26077819 76.73520646 150.625 86.0625 C158.41625456 90.50663645 166.18424987 94.98988196 173.9375 99.5 C175.45754639 100.3818396 175.45754639 100.3818396 177.00830078 101.28149414 C177.96333496 101.83828857 178.91836914 102.39508301 179.90234375 102.96875 C181.16292603 103.70254883 181.16292603 103.70254883 182.44897461 104.45117188 C183.29081299 104.96228516 184.13265137 105.47339844 185 106 C186.52210083 106.90069214 186.52210083 106.90069214 188.07495117 107.81958008 C191.33830413 110.25218213 192.86211689 112.41211882 194.8984375 115.91796875 C195.2335434 116.48686325 195.56864929 117.05575775 195.91390991 117.64189148 C196.95653695 119.42025617 197.97939323 121.20892552 199 123 C199.63067383 124.08748535 200.26134766 125.1749707 200.91113281 126.29541016 C202.83209871 129.62538406 204.73080635 132.96723231 206.625 136.3125 C208.03219835 138.78870445 209.44154656 141.2636803 210.8515625 143.73828125 C211.20244934 144.35430206 211.55333618 144.97032288 211.91485596 145.60501099 C215.23551853 151.42740393 218.61163061 157.21677362 222 163 C227.05654581 171.63483551 232.04607261 180.30606563 237 189 C242.53985933 198.72124506 248.13374932 208.40894868 253.78344727 218.06689453 C259.93766742 228.59084625 266.02369996 239.15380137 272.10888672 249.71777344 C275.23680148 255.14659942 278.36858448 260.57319281 281.5 266 C282.75001879 268.16665583 284.00001878 270.3333225 285.25 272.5 C285.86875 273.5725 286.4875 274.645 287.125 275.75 C442.75 545.5 442.75 545.5 444.62646484 548.75268555 C445.87141282 550.91049803 447.1165289 553.06821353 448.36181641 555.22583008 C451.56552651 560.77716592 454.7659363 566.33036541 457.9609375 571.88671875 C459.26556927 574.15367791 460.57025587 576.42060551 461.875 578.6875 C462.49761719 579.77095703 463.12023437 580.85441406 463.76171875 581.97070312 C466.45315015 586.64180622 469.1593025 591.29799969 471.9765625 595.89453125 C472.40984863 596.60198486 472.84313477 597.30943848 473.28955078 598.03833008 C474.06932441 599.30204148 474.85623828 600.56138864 475.65185547 601.81518555 C476.49383867 603.17517057 477.25716163 604.58342451 478 606 C477.67 606.66 477.34 607.32 477 608 C434.63088585 583.46000761 434.63088585 583.46000761 425 575 C424.1234375 574.26652344 423.246875 573.53304687 422.34375 572.77734375 C408.10341675 560.4770559 399.2151215 545.1952633 390 529 C388.96539375 527.19499713 387.93024883 525.39030291 386.89453125 523.5859375 C384.89120557 520.09058846 382.8944279 516.59161069 380.90234375 513.08984375 C376.76183034 505.81731485 372.55880689 498.58109462 368.35888672 491.34277344 C366.07001677 487.39667282 363.78522976 483.44820941 361.5 479.5 C360.58335258 477.91665553 359.66668592 476.33332219 358.75 474.75 C342.25 446.25 342.25 446.25 340.8737793 443.87255859 C339.96156693 442.29714012 339.04897231 440.72194293 338.13598633 439.14697266 C335.77290619 435.06931892 333.41758368 430.98745753 331.07421875 426.8984375 C330.59082031 426.05732422 330.10742188 425.21621094 329.609375 424.34960938 C328.69670275 422.76120863 327.78634182 421.17147633 326.87890625 419.58007812 C326.03291432 418.10997252 325.17494838 416.64669021 324.30493164 415.19067383 C323.42127486 413.70722157 322.56687854 412.20601392 321.73999023 410.69018555 C317.72784227 403.85748096 312.56053824 400.76253768 305.6875 397.0625 C303.53250544 395.85294768 301.37755779 394.64331178 299.22265625 393.43359375 C297.63735107 392.55936768 297.63735107 392.55936768 296.02001953 391.66748047 C285.42461005 385.81730693 275.12908421 380.0196469 266 372 C265.195625 371.32710937 264.39125 370.65421875 263.5625 369.9609375 C253.22782198 361.07957358 244.99568744 350.87517914 238.20068359 339.08007812 C236.80041178 336.65423105 235.37895215 334.2413453 233.95703125 331.828125 C227.20646015 320.34250071 220.57785079 308.78781759 213.98168945 297.21310425 C209.36645495 289.1152921 204.70983527 281.04328032 200 273 C194.94368842 264.36502041 189.95418898 255.69379109 185 247 C179.80946661 237.89408738 174.58961289 228.80613397 169.3125 219.75 C168.74853516 218.780625 168.18457031 217.81125 167.60351562 216.8125 C166.55211662 215.01228114 165.49066859 213.21788154 164.41772461 211.43041992 C163 209 163 209 161.94360352 206.8137207 C158.64978375 200.42074046 153.35817082 197.83196985 147.1116333 194.6151123 C144.66166157 193.35193524 142.23839866 192.04095523 139.81225586 190.73275757 C138.5939208 190.07652021 137.37435844 189.42255615 136.15356445 188.77090454 C122.99097794 181.74386722 110.9632316 174.1461886 100 164 C99.13117188 163.21238281 98.26234375 162.42476562 97.3671875 161.61328125 C85.69600487 150.54578048 77.78086846 137.28020649 70.22509766 123.23779297 C68.27327264 119.67254225 66.20251171 116.18054084 64.125 112.6875 C60.43902189 106.47134724 56.82413617 100.21862217 53.25 93.9375 C48.9282967 86.34311149 44.54474059 78.78771361 40.125 71.25 C35.21232551 62.86679163 30.41355309 54.42724713 25.6875 45.9375 C20.98045419 37.48418811 16.16084986 29.13065966 11.13134766 20.86572266 C8.87935831 17.15193272 6.65523906 13.42181574 4.4375 9.6875 C3.9950293 8.95080078 3.55255859 8.21410156 3.09667969 7.45507812 C0 2.2289685 0 2.2289685 0 0 Z " fill="#FEFDFE" transform="translate(90,431)"/>
</svg>
